<svg id="Layer_4" data-name="Layer 4" xmlns="http://www.w3.org/2000/svg" viewBox="0 0 2074.9 1255.9"><defs><style>.cls-1{fill:#5482c6;}.cls-2,.cls-9{fill:#afcdfb;}.cls-2,.cls-7{opacity:0.6;}.cls-3{fill:#d2e3fc;}.cls-4{fill:#92bef4;}.cls-5{fill:#a6c1e2;}.cls-6{fill:#9fc1f4;}.cls-7{fill:#d2e4ff;}.cls-8{fill:#77a4e5;}.cls-10{fill:#699ff0;}.cls-11{fill:#5584c9;}.cls-12{fill:#bdd1f9;}.cls-13{fill:#97bcf2;}.cls-14{fill:#2a4e96;opacity:0.2;}.cls-15{fill:#9fc3f7;}.cls-16{fill:#ffe082;}.cls-17{fill:#db9a54;}.cls-18{fill:#edb272;}.cls-19{fill:#1f9dad;}.cls-20{fill:#729ca8;}.cls-21{fill:#ff4643;}.cls-22{fill:#23b1c4;}.cls-23{fill:#87b8c7;}.cls-24{fill:#3a423c;}.cls-25{fill:#473421;}.cls-26{fill:#4e5950;}.cls-27{fill:#ffd557;}.cls-28{fill:#72b36b;}.cls-29{fill:#404da1;}.cls-30{fill:#5d4837;}.cls-31{fill:#323c7d;}.cls-32{fill:#61995b;}.cls-33{fill:#9e8b52;}.cls-34{fill:#e6a865;}.cls-35{fill:#dbd3ba;}.cls-36{fill:#bf8649;}.cls-37{fill:#ad3730;}.cls-38{fill:#08292e;}.cls-39{fill:#cc4139;}.cls-40{fill:#807042;}.cls-41{fill:#ebe2c7;}.cls-42{fill:#bfb8a2;}.cls-43{fill:#d9a368;}.cls-44{fill:#e3822e;}.cls-45{fill:#ee9b30;}.cls-46{fill:#d1453d;}.cls-47{fill:#f05987;}.cls-48{fill:#ba3d63;}.cls-49{fill:#3f3d75;}.cls-50{fill:#55529e;}.cls-51{fill:#99765a;}.cls-52{fill:#c9426b;}.cls-53{fill:#ffdf80;}.cls-54{fill:#db4045;}.cls-55{fill:#e8bd3c;}.cls-56{fill:#d6a167;}.cls-57{fill:#b8363a;}.cls-58{fill:#41ab82;}.cls-59{fill:#4ac495;}</style></defs><rect class="cls-1" x="674.9" y="945.4" width="299.4" height="95.38"/><rect class="cls-2" x="923.1" y="982.9" width="10.6" height="22.32"/><polygon class="cls-2" points="719.8 1005 709.3 1005 709.3 1015.6 719.9 1015.6 719.9 1005.2 780.2 1005.2 780.2 1015.8 825.4 1015.8 825.4 1005.3 923 1005.3 923 973.8 719.8 973.8 719.8 1005"/><rect class="cls-3" x="674.6" y="822.4" width="20.7" height="122.78"/><path class="cls-4" d="M708.2,768.2H682.5v40.2a13.4,13.4,0,0,0,1,4.9v9.1h24.7v-14h0Z"/><rect class="cls-5" x="674.6" y="822.4" width="10.1" height="84.4"/><rect class="cls-5" x="685" y="906.7" width="10.1" height="10.55"/><path class="cls-6" d="M2062.9,10.4H12V60.1H440.6V97.5a2.6,2.6,0,0,0,2.6,2.6h.3a2.6,2.6,0,0,0,2.6-2.6V60.1H1057V97.5a2.6,2.6,0,0,0,2.5,2.6h.4a2.6,2.6,0,0,0,2.5-2.6V60.1h894.5V97.5a2.6,2.6,0,0,0,2.6,2.6h.3a2.6,2.6,0,0,0,2.6-2.6V60.1h100.5Z"/><rect class="cls-7" x="655.3" y="181.6" width="698.1" height="404.3"/><polygon class="cls-8" points="1329.8 181.6 1323 181.6 655.3 181.6 655.3 254.6 655.3 289.6 655.3 585.9 685.4 585.9 685.4 289.6 910 289.6 910 585.9 940.5 585.9 940.5 289.6 1323 289.6 1323 585.9 1353.5 585.9 1353.5 181.6 1329.8 181.6"/><rect class="cls-2" x="677.5" y="244.1" width="10.6" height="22.32"/><polygon class="cls-2" points="901.9 233.8 891.3 233.8 891.3 244.1 831 244.1 831 233.6 785.8 233.6 785.8 244.1 688.2 244.1 688.2 275.6 891.5 275.6 891.5 244.4 901.9 244.4 901.9 233.8"/><polygon class="cls-9" points="736.3 354.4 725.7 354.4 725.7 392.2 715.2 392.2 715.2 456.6 725.7 456.6 725.7 549.6 715.2 549.6 715.2 586.1 725.7 586.1 793.5 586.1 793.5 343.8 736.3 343.8 736.3 354.4"/><polygon class="cls-9" points="877.3 455.3 877.3 377.1 867.1 377.1 867.1 354.4 856.5 354.4 856.5 343.8 799.2 343.8 799.2 586.1 867.1 586.1 867.1 559.8 877.3 559.8 877.3 529.2 867.1 529.2 867.1 455.3 877.3 455.3"/><rect class="cls-7" x="12" y="181.6" width="229" height="404.3"/><polygon class="cls-9" points="66.4 354.2 55.8 354.2 55.8 376.9 45.6 376.9 45.6 455.1 55.8 455.1 55.8 529 45.6 529 45.6 559.5 55.8 559.5 55.8 585.9 123.6 585.9 123.6 343.6 66.4 343.6 66.4 354.2"/><polygon class="cls-9" points="207.7 421.8 207.7 343.6 197.2 343.6 129.3 343.6 129.3 585.9 197.2 585.9 207.7 585.9 207.7 549.4 197.2 549.4 197.2 421.8 207.7 421.8"/><rect class="cls-10" x="123.6" y="343.6" width="5.7" height="242.24"/><rect class="cls-11" x="123.6" y="441" width="5.7" height="144.84"/><rect class="cls-3" x="12" y="1040.7" width="2050.9" height="204.89"/><rect class="cls-6" x="1527.2" y="713.2" width="233" height="327.57"/><rect class="cls-3" x="1538.6" y="724.4" width="100.1" height="305.4"/><rect class="cls-3" x="1647" y="724.4" width="100.1" height="305.4"/><rect class="cls-6" x="1527.2" y="259.2" width="233" height="327.57"/><rect class="cls-3" x="1538.6" y="270.4" width="100.1" height="305.4"/><rect class="cls-3" x="1647" y="270.4" width="100.1" height="305.4"/><rect class="cls-6" x="1527.2" y="585.7" width="233" height="49.95"/><rect class="cls-6" x="1527.2" y="10.3" width="233" height="49.95"/><rect class="cls-8" x="50.8" y="181.6" width="146.3" height="131.14"/><rect class="cls-3" x="954.2" y="822.4" width="20.1" height="122.78"/><rect class="cls-1" x="1447.6" y="10.4" width="79.6" height="1030.34"/><rect class="cls-1" x="1760.2" y="10.4" width="79.6" height="1030.34"/><rect class="cls-8" x="474.2" y="587" width="118.6" height="467.54"/><rect class="cls-12" x="474.2" y="587" width="118.6" height="5.02"/><rect class="cls-12" x="474.2" y="603.7" width="118.6" height="5.02"/><rect class="cls-12" x="474.2" y="624.6" width="118.6" height="5.02"/><rect class="cls-12" x="474.2" y="652.5" width="118.6" height="5.02"/><rect class="cls-12" x="474.2" y="676.7" width="118.6" height="5.02"/><rect class="cls-12" x="474.2" y="704.1" width="118.6" height="5.02"/><rect class="cls-12" x="474.2" y="731.4" width="118.6" height="5.02"/><rect class="cls-12" x="474.2" y="762.6" width="118.6" height="5.02"/><rect class="cls-12" x="474.2" y="789.3" width="118.6" height="5.02"/><rect class="cls-12" x="474.2" y="817.4" width="118.6" height="5.02"/><rect class="cls-12" x="474.2" y="847.1" width="118.6" height="5.02"/><rect class="cls-12" x="474.2" y="884.3" width="118.6" height="5.02"/><rect class="cls-12" x="474.2" y="921.5" width="118.6" height="5.02"/><rect class="cls-12" x="474.2" y="967.8" width="118.6" height="5.02"/><rect class="cls-12" x="474.2" y="1005.3" width="118.6" height="5.02"/><rect class="cls-8" x="291" y="587" width="118.6" height="467.54"/><rect class="cls-12" x="293.1" y="587" width="118.6" height="5.02"/><rect class="cls-12" x="293.1" y="603.7" width="118.6" height="5.02"/><rect class="cls-12" x="293.1" y="624.6" width="118.6" height="5.02"/><rect class="cls-12" x="293.1" y="652.5" width="118.6" height="5.02"/><rect class="cls-12" x="293.1" y="676.7" width="118.6" height="5.02"/><rect class="cls-12" x="293.1" y="704.1" width="118.6" height="5.02"/><rect class="cls-12" x="293.1" y="731.4" width="118.6" height="5.02"/><rect class="cls-12" x="293.1" y="762.6" width="118.6" height="5.02"/><rect class="cls-12" x="293.1" y="789.3" width="118.6" height="5.02"/><rect class="cls-12" x="293.1" y="817.4" width="118.6" height="5.02"/><rect class="cls-12" x="293.1" y="847.1" width="118.6" height="5.02"/><rect class="cls-12" x="293.1" y="884.3" width="118.6" height="5.02"/><rect class="cls-12" x="293.1" y="921.5" width="118.6" height="5.02"/><rect class="cls-12" x="293.1" y="967.8" width="118.6" height="5.02"/><rect class="cls-12" x="293.1" y="1005.3" width="118.6" height="5.02"/><polygon class="cls-3" points="1803.1 898 1778.6 898 1778.6 851.9 1778.6 851.9 1803.1 851.9 1803.1 898 1803.1 898"/><rect class="cls-10" x="110.8" y="450.9" width="10.6" height="10.55"/><rect class="cls-10" x="132.1" y="450.9" width="10.6" height="10.55"/><polygon class="cls-1" points="657.9 768.2 657.9 807.9 657.9 808.4 657.9 822.4 683.5 822.4 683.5 808.4 683.5 807.9 683.5 768.2 657.9 768.2"/><polygon class="cls-1" points="708.2 768.2 708.2 807.9 708.2 808.4 708.2 822.4 733.8 822.4 733.8 808.4 733.8 807.9 733.8 768.2 708.2 768.2"/><polygon class="cls-1" points="963.7 768.2 963.7 808.4 963.7 808.4 963.7 822.4 989.3 822.4 989.3 808.4 989.3 807.9 989.3 768.2 963.7 768.2"/><polygon class="cls-1" points="912.5 768.2 912.5 807.9 912.5 808.4 912.5 822.4 938.1 822.4 938.1 808.4 938.1 807.9 938.1 768.2 912.5 768.2"/><polygon class="cls-1" points="861.2 768.2 861.2 807.9 861.2 808.4 861.2 822.4 886.9 822.4 886.9 808.4 886.9 807.9 886.9 768.2 861.2 768.2"/><polygon class="cls-1" points="810 768.2 810 807.9 810 808.4 810 822.4 835.6 822.4 835.6 808.4 835.6 807.9 835.6 768.2 810 768.2"/><path class="cls-1" d="M785,768.2H759.4v54.2h25v-9.9a14,14,0,0,0,.6-4.1Z"/><polygon class="cls-4" points="733.8 768.2 733.8 807.9 733.8 808.4 733.8 822.4 759.4 822.4 759.4 808.4 759.4 807.9 759.4 768.2 733.8 768.2"/><path class="cls-4" d="M963.7,768.2H938.1v54.2h25.5V810.2a10.9,10.9,0,0,0,.1-1.8Z"/><path class="cls-4" d="M912.5,768.2H886.9v39.7h-.2v14.5h25.6V810.2a11,11,0,0,0,.2-1.8Z"/><polygon class="cls-4" points="835.6 768.2 835.6 807.9 835.5 807.9 835.5 822.4 861.2 822.4 861.2 808.4 861.2 807.9 861.2 768.2 835.6 768.2"/><polygon class="cls-4" points="784.4 768.2 784.4 807.9 784.4 808.4 784.4 822.4 810 822.4 810 808.4 810 807.9 810 768.2 784.4 768.2"/><rect class="cls-10" x="406.4" y="113.7" width="10.6" height="10.55"/><rect class="cls-10" x="417" y="103.1" width="10.6" height="10.55"/><rect class="cls-10" x="427.5" y="92.6" width="10.6" height="10.55"/><rect class="cls-10" x="469.7" y="113.7" width="10.6" height="10.55"/><rect class="cls-10" x="459.2" y="103.1" width="10.6" height="10.55"/><polygon class="cls-10" points="459.2 113.7 448.6 113.7 448.6 103.1 459.2 103.1 459.2 92.6 448.6 92.6 448.6 82 438.1 82 438.1 92.6 448.6 92.6 448.6 103.1 438.1 103.1 438.1 113.7 427.5 113.7 427.5 124.3 417 124.3 417 134.8 427.5 134.8 438.1 134.8 448.6 134.8 448.6 134.8 459.2 134.8 469.7 134.8 469.7 124.3 459.2 124.3 459.2 113.7"/><rect class="cls-13" x="406.4" y="124.2" width="10.6" height="10.55"/><rect class="cls-13" x="427.5" y="103.1" width="10.6" height="10.55"/><rect class="cls-13" x="417" y="113.7" width="10.6" height="10.55"/><rect class="cls-13" x="469.7" y="124.2" width="10.6" height="10.55"/><polygon class="cls-13" points="448.6 103.1 448.6 92.6 438.1 92.6 438.1 103.1 448.6 103.1 448.6 113.7 459.2 113.7 459.2 103.1 448.6 103.1"/><rect class="cls-13" x="459.2" y="113.7" width="10.6" height="10.55"/><rect class="cls-10" x="1022.8" y="113.7" width="10.6" height="10.55"/><rect class="cls-10" x="1033.3" y="103.1" width="10.6" height="10.55"/><rect class="cls-10" x="1043.9" y="92.6" width="10.6" height="10.55"/><rect class="cls-10" x="1086.1" y="113.7" width="10.6" height="10.55"/><rect class="cls-10" x="1075.5" y="103.1" width="10.6" height="10.55"/><polygon class="cls-10" points="1075.5 113.7 1065 113.7 1065 103.1 1075.5 103.1 1075.5 92.6 1065 92.6 1065 82 1054.4 82 1054.4 92.6 1065 92.6 1065 103.1 1054.4 103.1 1054.4 113.7 1043.9 113.7 1043.9 124.3 1033.3 124.3 1033.3 134.8 1043.9 134.8 1054.4 134.8 1065 134.8 1065 134.8 1075.5 134.8 1086.1 134.8 1086.1 124.3 1075.5 124.3 1075.5 113.7"/><rect class="cls-13" x="1022.8" y="124.2" width="10.6" height="10.55"/><rect class="cls-13" x="1043.9" y="103.1" width="10.6" height="10.55"/><rect class="cls-13" x="1033.3" y="113.7" width="10.6" height="10.55"/><rect class="cls-13" x="1086.1" y="124.2" width="10.6" height="10.55"/><polygon class="cls-13" points="1065 103.1 1065 92.6 1054.4 92.6 1054.4 103.1 1065 103.1 1065 113.7 1075.5 113.7 1075.5 103.1 1065 103.1"/><rect class="cls-13" x="1075.5" y="113.7" width="10.6" height="10.55"/><path class="cls-2" d="M2062.9,585.9H12v49.7H1023v46.1a2.4,2.4,0,0,0,2.6,2.1h.3a2.4,2.4,0,0,0,2.6-2.1V635.6H2062.9Z"/><rect class="cls-10" x="988.8" y="701" width="10.6" height="10.55"/><rect class="cls-10" x="999.4" y="690.5" width="10.6" height="10.55"/><rect class="cls-10" x="1009.9" y="679.9" width="10.6" height="10.55"/><rect class="cls-10" x="1052.1" y="701" width="10.6" height="10.55"/><rect class="cls-10" x="1041.6" y="690.5" width="10.6" height="10.55"/><polygon class="cls-10" points="1041.6 701 1031 701 1031 690.5 1041.6 690.5 1041.6 679.9 1031 679.9 1031 669.4 1020.5 669.4 1020.5 679.9 1031 679.9 1031 690.5 1020.5 690.5 1020.5 701 1009.9 701 1009.9 711.6 999.4 711.6 999.4 722.1 1009.9 722.1 1020.5 722.1 1031 722.1 1031 722.1 1041.6 722.1 1052.1 722.1 1052.1 711.6 1041.6 711.6 1041.6 701"/><rect class="cls-13" x="988.8" y="711.6" width="10.6" height="10.55"/><rect class="cls-13" x="1009.9" y="690.5" width="10.6" height="10.55"/><rect class="cls-13" x="999.4" y="701" width="10.6" height="10.55"/><rect class="cls-13" x="1052.1" y="711.6" width="10.6" height="10.55"/><polygon class="cls-13" points="1031 690.5 1031 679.9 1020.5 679.9 1020.5 690.5 1031 690.5 1031 701 1041.6 701 1041.6 690.5 1031 690.5"/><rect class="cls-13" x="1041.6" y="701" width="10.6" height="10.55"/><rect class="cls-10" x="1922.7" y="113.7" width="10.6" height="10.55"/><rect class="cls-10" x="1933.3" y="103.1" width="10.6" height="10.55"/><rect class="cls-10" x="1943.8" y="92.6" width="10.6" height="10.55"/><rect class="cls-10" x="1986" y="113.7" width="10.6" height="10.55"/><rect class="cls-10" x="1975.5" y="103.1" width="10.6" height="10.55"/><polygon class="cls-10" points="1975.5 113.7 1964.9 113.7 1964.9 103.1 1975.5 103.1 1975.5 92.6 1964.9 92.6 1964.9 82 1954.4 82 1954.4 92.6 1964.9 92.6 1964.9 103.1 1954.4 103.1 1954.4 113.7 1943.8 113.7 1943.8 124.3 1933.3 124.3 1933.3 134.8 1943.8 134.8 1954.4 134.8 1964.9 134.8 1964.9 134.8 1975.5 134.8 1986 134.8 1986 124.3 1975.5 124.3 1975.5 113.7"/><rect class="cls-13" x="1922.7" y="124.2" width="10.6" height="10.55"/><rect class="cls-13" x="1943.8" y="103.1" width="10.6" height="10.55"/><rect class="cls-13" x="1933.3" y="113.7" width="10.6" height="10.55"/><rect class="cls-13" x="1986" y="124.2" width="10.6" height="10.55"/><polygon class="cls-13" points="1964.9 103.1 1964.9 92.6 1954.4 92.6 1954.4 103.1 1964.9 103.1 1964.9 113.7 1975.5 113.7 1975.5 103.1 1964.9 103.1"/><rect class="cls-13" x="1975.5" y="113.7" width="10.6" height="10.55"/><polygon class="cls-1" points="186.6 181.6 186.6 292.2 176.2 292.2 176.2 302.1 95.3 302.1 95.3 312.7 186.6 312.7 194.1 312.7 197.2 312.7 197.2 181.6 186.6 181.6"/><polygon class="cls-4" points="71.6 181.6 61.1 181.6 50.5 181.6 50.5 192.1 50.5 202.7 50.5 223.2 61.1 223.2 61.1 202.7 71.6 202.7 71.6 192.1 96.2 192.1 96.2 181.6 71.6 181.6"/><polygon class="cls-2" points="182.9 241.4 172.4 241.4 172.4 251.9 74.8 251.9 74.8 283.4 172.5 283.4 172.5 252 182.9 252 182.9 241.4"/><rect class="cls-2" x="64.1" y="251.9" width="10.6" height="22.32"/><polygon class="cls-1" points="151.6 262.4 84.5 262.4 84.5 273 151.6 273 162.2 273 162.2 262.4 151.6 262.4"/><rect class="cls-14" x="25.7" y="447.5" width="261.5" height="122.26"/><rect class="cls-2" x="295.5" y="217" width="122.9" height="198.99"/><path class="cls-1" d="M374.3,395V384.6H363.7V374.1H348V363.5H337.7V353.2H327.1v20.9H316.4v-46H305.9v77.5H407.8V395Zm-57.9-10.4h10.4V395H316.4Z"/><path class="cls-1" d="M397.3,228.5H305.9v10.6h33.5v10.3H350V260h15.7v10.5H376v10.4h10.5V270.5h0V260h10.8v45.9h10.5V228.5Zm0,20.9H386.9V239.1h10.4Z"/><rect class="cls-2" x="70.7" y="726.8" width="122.9" height="198.99"/><path class="cls-1" d="M149.5,904.8V894.5H138.9V883.9H123.2V873.4H112.9V863H102.3v10.4h0v10.4H91.6V838H81.1v77.4H183V904.8ZM91.6,894.5H102v10.3H91.6Z"/><polygon class="cls-1" points="183 738.4 172.4 738.4 81.1 738.4 81.1 748.9 114.6 748.9 114.6 759.3 125.2 759.3 162.1 759.3 162.1 748.9 172.4 748.9 172.4 759.3 125.2 759.3 125.2 769.8 140.9 769.8 140.9 780.4 151.2 780.4 151.2 790.7 161.7 790.7 161.7 780.4 161.7 780.2 161.7 769.8 151.5 769.8 144.7 769.8 172.4 769.8 172.4 805.2 172.4 815.8 183 815.8 183 748.9 183 748.9 183 738.4"/><rect class="cls-2" x="458.6" y="217" width="122.9" height="198.99"/><path class="cls-1" d="M537.4,395V384.6H526.8V374.1H511.1V363.5H500.8V353.2H490.3v20.9H479.6v-46H469v77.5H570.9V395Zm-57.8-10.4h10.3V395H479.6Z"/><path class="cls-1" d="M469,228.5v10.6h33.6v10.3h10.5V260h15.7v10.5h10.3v10.4h10.6V270.5h0V260h10.7v45.9h10.5V228.5Zm91.4,20.9H550V239.1h10.4Z"/><rect class="cls-2" x="1898.1" y="709.4" width="122.9" height="198.99"/><path class="cls-1" d="M1976.9,887.4V877h-10.6V866.5h-15.7V855.9h-10.3V845.6h-10.5v20.9h-10.7v-46h-10.6V898h101.9V887.4ZM1919.1,877h10.3v10.4h-10.3Z"/><path class="cls-1" d="M1908.5,720.9v10.6h33.6v10.4h10.5v10.5h15.7V763h10.3v10.3h10.6V752.4h10.7v46h10.5V720.9Zm91.4,21h-10.4V731.5h10.4Z"/><rect class="cls-2" x="1895.5" y="279.4" width="122.9" height="198.99"/><path class="cls-1" d="M1974.2,457.4V447h-10.5V436.5h-15.8V425.9h-10.2V415.6h-10.6v20.9h-10.7v-46h-10.5v77.4h101.9V457.4ZM1916.4,447h10.3v10.4h-10.3Z"/><path class="cls-1" d="M1997.2,290.9h-91.3v10.6h33.5v10.3H1950v10.6h15.7v10.5H1976v10.4h10.5V332.9h0V322.4h10.7v45.9h10.6V290.9Zm0,20.9h-10.3V301.5h10.3Z"/><polygon class="cls-15" points="291.8 489.5 291.8 447.5 282.6 447.5 282.6 457.1 273.4 457.1 273.4 477.8 282.6 477.8 282.6 585.9 291.8 585.9 291.8 542.3 301 542.3 301 489.5 291.8 489.5"/><polygon class="cls-15" points="30.3 555.6 30.3 447.5 21.2 447.5 21.2 491 12 491 12 543.8 21.2 543.8 21.2 585.9 30.3 585.9 30.3 576.2 39.5 576.2 39.5 555.6 30.3 555.6"/><polygon class="cls-15" points="597.4 534.6 597.4 447.5 588.2 447.5 588.2 491 579 491 579 543.8 588.2 543.8 588.2 585.9 597.4 585.9 606.5 585.9 606.5 534.6 597.4 534.6"/><polygon class="cls-15" points="1438.4 555.4 1438.4 447.3 1429.2 447.3 1429.2 490.8 1420 490.8 1420 543.6 1429.2 543.6 1429.2 585.7 1438.4 585.7 1438.4 576 1447.6 576 1447.6 555.4 1438.4 555.4"/><rect class="cls-10" x="793.5" y="343.8" width="5.7" height="242.24" transform="translate(1592.8 929.9) rotate(-180)"/><rect class="cls-11" x="793.5" y="441.2" width="5.7" height="144.84" transform="translate(1592.8 1027.3) rotate(-180)"/><rect class="cls-10" x="801.6" y="451.2" width="10.6" height="10.55" transform="translate(1613.7 912.9) rotate(-180)"/><rect class="cls-10" x="780.2" y="451.2" width="10.6" height="10.55" transform="translate(1571 912.9) rotate(-180)"/><polygon class="cls-4" points="676.4 181.6 665.9 181.6 655.3 181.6 655.3 192.1 655.3 202.7 655.3 223.2 665.9 223.2 665.9 202.7 676.4 202.7 676.4 192.1 701 192.1 701 181.6 676.4 181.6"/><polygon class="cls-1" points="1312.5 193.9 1312.5 203.7 1302.2 203.7 1302.2 194.2 1291.6 194.2 1291.6 204.8 1302.1 204.8 1302.1 230.7 1312.5 230.7 1312.5 269.3 1295.2 269.3 1295.2 259.2 1284.6 259.2 1274.1 259.2 1274.1 269.3 1256.2 269.3 1256.2 279.1 1174.4 279.1 1174.4 269.4 1184.5 269.4 1184.5 258.8 1173.9 258.8 1173.9 269.3 1123.9 269.3 1123.9 279.1 1089.7 279.1 1089.7 269.3 1079.2 269.3 1079.2 279.9 1089.5 279.9 1089.5 289.6 1312.5 289.6 1320.8 289.6 1323 289.6 1323 193.9 1312.5 193.9"/><polygon class="cls-1" points="765.1 254.6 697.9 254.6 697.9 265.1 765.1 265.1 880.2 265.1 880.2 254.6 765.1 254.6"/><polygon class="cls-5" points="964.2 871.2 964.2 860.7 964.2 850.1 954.1 850.1 954.1 860.7 954.1 871.2 964.1 871.2 964.1 945.4 974.2 945.4 974.2 871.2 964.2 871.2"/><polygon class="cls-1" points="846.2 984.2 731 984.2 731 994.8 846.2 994.8 913.3 994.8 913.3 984.2 846.2 984.2"/><rect class="cls-1" x="1094.3" y="945.4" width="299.4" height="95.38"/><rect class="cls-2" x="1342.5" y="982.9" width="10.6" height="22.32"/><polygon class="cls-2" points="1139.2 1005 1128.7 1005 1128.7 1015.6 1139.3 1015.6 1139.3 1005.2 1199.6 1005.2 1199.6 1015.8 1244.8 1015.8 1244.8 1005.3 1342.4 1005.3 1342.4 973.8 1139.2 973.8 1139.2 1005"/><rect class="cls-3" x="1094" y="822.4" width="20.7" height="122.78"/><path class="cls-4" d="M1127.6,768.2h-25.7v40.2a13.4,13.4,0,0,0,1,4.9v9.1h24.7v-14h0Z"/><rect class="cls-5" x="1094" y="822.4" width="10.1" height="84.4"/><rect class="cls-5" x="1104.4" y="906.7" width="10.1" height="10.55"/><rect class="cls-3" x="1373.6" y="822.4" width="20.1" height="122.78"/><polygon class="cls-1" points="1077.3 768.2 1077.3 807.9 1077.3 808.4 1077.3 822.4 1102.9 822.4 1102.9 808.4 1102.9 807.9 1102.9 768.2 1077.3 768.2"/><polygon class="cls-1" points="1127.6 768.2 1127.6 807.9 1127.6 808.4 1127.6 822.4 1153.2 822.4 1153.2 808.4 1153.2 807.9 1153.2 768.2 1127.6 768.2"/><polygon class="cls-1" points="1383.1 768.2 1383.1 808.4 1383.1 808.4 1383.1 822.4 1408.7 822.4 1408.7 808.4 1408.7 807.9 1408.7 768.2 1383.1 768.2"/><polygon class="cls-1" points="1331.9 768.2 1331.9 807.9 1331.9 808.4 1331.9 822.4 1357.5 822.4 1357.5 808.4 1357.5 807.9 1357.5 768.2 1331.9 768.2"/><polygon class="cls-1" points="1280.6 768.2 1280.6 807.9 1280.6 808.4 1280.6 822.4 1306.3 822.4 1306.3 808.4 1306.3 807.9 1306.3 768.2 1280.6 768.2"/><polygon class="cls-1" points="1229.4 768.2 1229.4 807.9 1229.4 808.4 1229.4 822.4 1255 822.4 1255 808.4 1255 807.9 1255 768.2 1229.4 768.2"/><path class="cls-1" d="M1204.4,768.2h-25.6v54.2h25v-9.9a14,14,0,0,0,.6-4.1Z"/><polygon class="cls-4" points="1153.2 768.2 1153.2 807.9 1153.2 808.4 1153.2 822.4 1178.8 822.4 1178.8 808.4 1178.8 807.9 1178.8 768.2 1153.2 768.2"/><path class="cls-4" d="M1383.1,768.2h-25.6v54.2H1383V810.2a10.9,10.9,0,0,0,.1-1.8Z"/><path class="cls-4" d="M1331.9,768.2h-25.6v39.7h-.2v14.5h25.6V810.2a11,11,0,0,0,.2-1.8Z"/><polygon class="cls-4" points="1255 768.2 1255 807.9 1254.9 807.9 1254.9 822.4 1280.6 822.4 1280.6 808.4 1280.6 807.9 1280.6 768.2 1255 768.2"/><polygon class="cls-4" points="1203.8 768.2 1203.8 807.9 1203.8 808.4 1203.8 822.4 1229.4 822.4 1229.4 808.4 1229.4 807.9 1229.4 768.2 1203.8 768.2"/><polygon class="cls-5" points="1383.6 871.2 1383.6 860.7 1383.6 850.1 1373.5 850.1 1373.5 860.7 1373.5 871.2 1383.5 871.2 1383.5 945.4 1393.6 945.4 1393.6 871.2 1383.6 871.2"/><polygon class="cls-1" points="1265.6 984.2 1150.4 984.2 1150.4 994.8 1265.6 994.8 1332.7 994.8 1332.7 984.2 1265.6 984.2"/><polygon class="cls-1" points="281.3 567.5 281.3 569.7 281.3 1004 281.3 1008.1 281.3 1060.5 293.1 1060.5 293.1 1008.1 293.1 1004 293.1 569.7 293.1 567.5 293.1 559.2 281.3 559.2 281.3 567.5"/><rect class="cls-1" x="269.5" y="843.4" width="11.7" height="104.21"/><rect class="cls-1" x="269.5" y="600.4" width="11.7" height="46.54"/><polygon class="cls-1" points="429.2 627.2 429.2 603.9 417.5 603.9 417.5 567.5 417.5 567.5 417.5 559.2 405.8 559.2 405.8 569.7 405.8 569.7 405.8 1004 405.8 1004 405.8 1060.5 417.5 1060.5 417.5 1030.8 429.2 1030.8 429.2 926.6 417.5 926.6 417.5 802.3 429.2 802.3 429.2 755.8 417.5 755.8 417.5 627.2 429.2 627.2"/><polygon class="cls-1" points="462.4 567.5 462.4 569.7 462.4 600.4 450.7 600.4 450.7 704.6 462.4 704.6 462.4 828.9 450.7 828.9 450.7 875.4 462.4 875.4 462.4 1004 450.7 1004 450.7 1027.2 462.4 1027.2 462.4 1060.5 474.2 1060.5 474.2 1008.1 474.2 1004 474.2 569.7 474.2 567.5 474.2 559.2 462.4 559.2 462.4 567.5"/><rect class="cls-1" x="598.7" y="683.6" width="11.7" height="104.21"/><rect class="cls-1" x="598.7" y="984.2" width="11.7" height="46.54"/><polygon class="cls-1" points="586.9 569.7 586.9 569.7 586.9 1004 586.9 1004 586.9 1060.5 598.7 1060.5 598.7 1004 598.7 1004 598.7 569.7 598.7 569.7 598.7 559.2 586.9 559.2 586.9 569.7"/><rect class="cls-1" x="1785.6" y="860.4" width="10.6" height="10.55"/><rect class="cls-1" x="1785.6" y="877.7" width="10.6" height="10.55"/><rect class="cls-14" x="592.8" y="447.5" width="841" height="122.26"/><rect class="cls-16" x="336" y="365.4" width="8.2" height="8.21"/><rect class="cls-16" x="360.6" y="365.4" width="8.2" height="8.21"/><rect class="cls-16" x="319.5" y="381.8" width="8.2" height="8.21"/><rect class="cls-16" x="327.7" y="373.6" width="8.2" height="8.21"/><polygon class="cls-16" points="377 373.6 368.8 373.6 368.8 381.8 377 381.8 385.2 381.8 385.2 373.6 377 373.6"/><polygon class="cls-17" points="336 439.3 336 431.1 336 431.1 336 422.8 327.7 422.8 327.7 431.1 327.7 439.3 336 439.3 336 447.5 344.2 447.5 344.2 439.3 336 439.3"/><polygon class="cls-18" points="393.4 414.6 393.4 406.4 385.2 406.4 385.2 398.2 385.2 390 377 390 368.8 390 360.6 390 360.6 381.8 352.4 381.8 352.4 373.6 344.2 373.6 344.2 381.8 344.2 390 336 390 336 398.2 336 406.4 327.7 406.4 327.7 398.2 319.5 398.2 319.5 406.4 319.5 414.6 319.5 422.8 327.7 422.8 336 422.8 336 431.1 336 439.3 344.2 439.3 344.2 447.5 352.4 447.5 360.6 447.5 368.8 447.5 377 447.5 377 439.3 385.2 439.3 385.2 431.1 393.4 431.1 393.4 422.8 393.4 414.6 393.4 414.6"/><rect class="cls-19" x="327.7" y="504.9" width="8.2" height="8.21"/><polygon class="cls-18" points="311.3 521.3 311.3 529.5 319.5 529.5 327.8 529.5 327.8 521.3 319.5 521.3 311.3 521.3"/><polygon class="cls-18" points="327.8 513.1 327.8 504.9 319.5 504.9 311.3 504.9 311.3 513.1 311.3 521.3 319.5 521.3 327.7 521.3 327.8 521.3 336 521.3 336 513.1 327.8 513.1"/><polygon class="cls-20" points="327.7 480.3 327.7 472.1 327.7 463.9 319.5 463.9 319.5 472.1 319.5 480.3 319.5 488.5 319.5 496.7 327.7 496.7 327.7 488.5 327.7 480.3"/><rect class="cls-20" x="327.7" y="496.7" width="8.2" height="8.21"/><polygon class="cls-20" points="385.2 480.3 385.2 488.5 385.2 496.7 393.4 496.7 393.4 488.5 393.4 480.3 385.2 480.3"/><rect class="cls-20" x="377" y="496.7" width="8.2" height="8.21"/><polygon class="cls-21" points="368.8 455.7 377 455.7 377 447.5 368.8 447.5 360.6 447.5 352.4 447.5 352.4 455.7 360.6 455.7 360.6 463.9 360.6 472.1 360.6 480.3 360.6 488.5 360.6 496.7 360.6 504.9 368.8 504.9 377 504.9 377 496.7 377 488.5 377 480.3 377 472.1 368.8 472.1 368.8 463.9 368.8 455.7"/><polygon class="cls-22" points="377 504.9 368.8 504.9 360.6 504.9 352.4 504.9 344.2 504.9 336 504.9 336 513.1 344.2 513.1 352.4 513.1 360.6 513.1 368.8 513.1 377 513.1 385.2 513.1 385.2 504.9 377 504.9"/><path class="cls-23" d="M352.4,447.5H336v-8.2H319.5v8.2h-8.2v8.2h-8.2v16.4h-8.2v16.4h8.2v16.4h24.7v-8.2H336v8.2h24.6V455.7h-8.2Zm-32.9,49.2V463.9h8.2v32.8Z"/><polygon class="cls-23" points="401.6 472.1 401.6 463.9 401.6 463.9 401.6 455.7 393.4 455.7 393.4 447.5 385.2 447.5 385.2 439.3 377 439.3 377 447.5 377 447.5 377 455.7 368.8 455.7 368.8 463.9 368.8 472.1 377 472.1 377 480.3 377 488.5 377 496.7 385.2 496.7 385.2 488.5 385.2 480.3 393.4 480.3 393.4 488.5 393.4 488.5 393.4 496.7 385.2 496.7 385.2 504.9 393.4 504.9 393.4 504.9 401.6 504.9 401.6 496.7 401.6 488.5 409.8 488.5 409.8 480.3 409.8 472.1 401.6 472.1"/><polygon class="cls-18" points="393.4 504.9 393.4 504.9 385.2 504.9 385.2 513.1 385.2 521.3 393.4 521.3 393.4 513.1 401.6 513.1 401.6 504.9 393.4 504.9"/><rect class="cls-24" x="336" y="513.1" width="8.2" height="8.21"/><polygon class="cls-24" points="327.7 529.5 319.5 529.5 319.5 537.7 319.5 545.9 319.5 545.9 319.5 554.1 311.3 554.1 311.3 562.3 319.5 562.3 319.5 554.1 327.8 554.1 327.8 545.9 327.8 545.9 327.8 537.7 327.8 529.5 336 529.5 336 521.3 327.7 521.3 327.7 529.5"/><polygon class="cls-24" points="311.3 570.6 311.3 578.8 319.5 578.8 319.5 570.6 319.5 562.4 311.3 562.4 311.3 570.6"/><polygon class="cls-25" points="327.8 578.8 319.5 578.8 319.5 587 327.8 587 336 587 344.2 587 344.2 578.8 336 578.8 327.8 578.8"/><rect class="cls-25" x="344.2" y="578.8" width="8.2" height="8.2"/><polygon class="cls-25" points="393.4 578.8 385.2 578.8 377 578.8 368.8 578.8 368.8 587 377 587 385.2 587 393.4 587 401.6 587 401.6 578.8 393.4 578.8"/><polygon class="cls-24" points="368.8 545.9 368.8 537.7 368.8 529.5 360.6 529.5 360.6 537.7 360.6 545.9 368.8 545.9 368.8 554.1 368.8 562.4 368.8 570.6 368.8 570.6 368.8 578.8 377 578.8 377 570.6 377 562.4 377 554.1 377 545.9 368.8 545.9"/><polygon class="cls-26" points="393.4 545.9 393.4 537.7 393.4 529.5 393.4 529.5 393.4 521.3 385.2 521.3 385.2 513.1 377 513.1 368.8 513.1 360.6 513.1 352.4 513.1 344.2 513.1 344.2 521.3 336 521.3 336 529.5 327.8 529.5 327.8 537.7 327.8 545.9 327.8 545.9 327.8 554.1 319.5 554.1 319.5 562.4 319.5 570.6 319.5 578.8 327.8 578.8 336 578.8 344.2 578.8 344.2 570.6 344.2 562.4 336 562.4 336 562.3 344.2 562.3 344.2 554.1 352.4 554.1 352.4 545.9 352.4 545.9 352.4 537.7 352.4 529.5 360.6 529.5 368.8 529.5 368.8 537.7 368.8 545.9 368.8 545.9 377 545.9 377 554.1 377 562.4 368.8 562.4 368.8 570.6 368.8 578.8 377 578.8 385.2 578.8 393.4 578.8 393.4 570.6 393.4 562.4 393.4 554.1 393.4 545.9 393.4 545.9"/><polygon class="cls-27" points="336 381.8 327.7 381.8 327.7 390 319.5 390 319.5 381.8 311.3 381.8 311.3 390 311.3 398.2 311.3 406.4 311.3 414.6 311.3 422.8 311.3 422.8 311.3 431.1 319.5 431.1 319.5 422.8 319.5 422.8 319.5 414.6 319.5 406.4 319.5 398.2 327.7 398.2 327.7 406.4 336 406.4 336 398.2 336 390 344.2 390 344.2 381.8 344.2 373.6 336 373.6 336 381.8"/><polygon class="cls-27" points="319.5 431.1 319.5 439.3 327.7 439.3 327.7 431.1 327.7 431.1 327.7 422.8 319.5 422.8 319.5 431.1 319.5 431.1"/><path class="cls-27" d="M393.4,373.6v-8.2h-8.2v-8.2H327.7v8.2h-8.2v16.4h8.2v-8.2H336v-8.2h8.2v8.2h8.2v8.2h8.2V390h41V373.6Zm-8.2,8.2H368.8v-8.2h-8.2v-8.2h8.2v8.2h16.4Z"/><polygon class="cls-28" points="152.5 1151.3 152.5 1143 152.5 1134.6 152.5 1126.2 144.2 1126.2 144.2 1117.9 135.8 1117.9 127.5 1117.9 119.1 1117.9 110.8 1117.9 102.4 1117.9 102.4 1126.2 94.1 1126.2 94.1 1134.6 85.7 1134.6 85.7 1143 85.7 1151.3 85.7 1151.3 85.7 1159.7 77.3 1159.7 77.3 1168 77.3 1176.4 77.3 1184.7 85.7 1184.7 94.1 1184.7 102.4 1184.7 102.4 1176.4 102.4 1168 102.4 1159.7 110.8 1159.7 110.8 1151.3 110.8 1151.3 110.8 1143 110.8 1134.6 119.1 1134.6 127.5 1134.6 127.5 1143 127.5 1151.3 127.5 1151.3 135.8 1151.3 135.8 1159.7 135.8 1168 127.5 1168 127.5 1176.4 127.5 1184.7 135.8 1184.7 144.2 1184.7 152.5 1184.7 152.5 1176.4 152.5 1168 152.5 1168 152.5 1159.7 152.5 1151.3 152.5 1151.3"/><polygon class="cls-29" points="152.5 1059.4 152.5 1051 144.2 1051 144.2 1042.7 135.8 1042.7 135.8 1051 135.8 1059.4 127.5 1059.4 127.5 1067.8 119.1 1067.8 110.8 1067.8 110.8 1059.4 102.4 1059.4 102.4 1051 110.8 1051 119.1 1051 119.1 1042.7 110.8 1042.7 102.4 1042.7 94.1 1042.7 94.1 1042.7 85.7 1042.7 77.3 1042.7 77.3 1051 69 1051 69 1059.4 69 1059.4 60.6 1059.4 60.6 1067.8 60.6 1076.1 69 1076.1 77.3 1076.1 85.7 1076.1 85.7 1084.5 85.7 1092.8 85.7 1101.2 85.7 1109.5 94.1 1109.5 102.4 1109.5 110.8 1109.5 119.1 1109.5 127.5 1109.5 135.8 1109.5 144.2 1109.5 144.2 1101.2 144.2 1092.8 144.2 1084.5 144.2 1076.1 152.5 1076.1 160.9 1076.1 160.9 1067.8 160.9 1059.4 152.5 1059.4"/><polygon class="cls-17" points="152.5 1017.6 152.5 1009.3 144.2 1009.3 144.2 1000.9 144.2 992.6 135.8 992.6 127.5 992.6 119.1 992.6 119.1 984.2 110.8 984.2 110.8 975.8 102.4 975.8 102.4 984.2 102.4 992.6 94.1 992.6 94.1 1000.9 94.1 1009.3 85.7 1009.3 85.7 1000.9 77.3 1000.9 77.3 1009.3 77.3 1017.6 77.3 1026 85.7 1026 85.7 1034.3 85.7 1042.7 94.1 1042.7 94.1 1051 102.4 1051 110.8 1051 119.1 1051 127.5 1051 135.8 1051 135.8 1042.7 144.2 1042.7 144.2 1034.3 152.5 1034.3 152.5 1026 152.5 1017.6 152.5 1017.6"/><polygon class="cls-30" points="127.5 1051 119.1 1051 110.8 1051 102.4 1051 102.4 1059.4 110.8 1059.4 110.8 1067.8 119.1 1067.8 127.5 1067.8 127.5 1059.4 135.8 1059.4 135.8 1051 127.5 1051"/><polygon class="cls-17" points="69 1126.2 69 1134.6 77.3 1134.6 85.7 1134.6 85.7 1126.2 77.3 1126.2 69 1126.2"/><polygon class="cls-17" points="85.7 1117.9 85.7 1109.5 77.3 1109.5 77.3 1101.2 77.3 1092.8 77.3 1084.5 77.3 1076.1 69 1076.1 60.6 1076.1 52.3 1076.1 52.3 1084.5 52.3 1092.8 60.6 1092.8 60.6 1101.2 60.6 1109.5 69 1109.5 69 1117.9 69 1126.2 77.3 1126.2 85.7 1126.2 85.7 1126.2 94.1 1126.2 94.1 1117.9 85.7 1117.9"/><polygon class="cls-31" points="85.7 1092.8 85.7 1084.5 85.7 1076.1 77.3 1076.1 77.3 1084.5 77.3 1092.8 77.3 1101.2 77.3 1109.5 85.7 1109.5 85.7 1101.2 85.7 1101.2 85.7 1092.8"/><polygon class="cls-31" points="144.2 1076.1 144.2 1084.5 144.2 1092.8 144.2 1101.2 152.5 1101.2 152.5 1092.8 152.5 1084.5 152.5 1076.1 144.2 1076.1"/><polygon class="cls-22" points="135.8 1109.5 127.5 1109.5 119.1 1109.5 110.8 1109.5 102.4 1109.5 94.1 1109.5 85.7 1109.5 85.7 1117.9 94.1 1117.9 102.4 1117.9 110.8 1117.9 119.1 1117.9 127.5 1117.9 135.8 1117.9 144.2 1117.9 144.2 1109.5 135.8 1109.5"/><polygon class="cls-17" points="160.9 1076.1 152.5 1076.1 152.5 1084.5 152.5 1092.8 152.5 1101.2 144.2 1101.2 144.2 1109.5 144.2 1117.9 144.2 1126.2 152.5 1126.2 152.5 1117.9 160.9 1117.9 160.9 1109.5 160.9 1101.2 160.9 1092.8 169.3 1092.8 169.3 1084.5 169.3 1076.1 160.9 1076.1"/><polygon class="cls-25" points="85.7 1184.7 77.3 1184.7 77.3 1193.1 77.3 1193.1 85.7 1193.1 94.1 1193.1 102.4 1193.1 102.4 1193.1 102.4 1184.7 94.1 1184.7 85.7 1184.7"/><polygon class="cls-25" points="102.4 1184.7 102.4 1193.1 102.4 1193.1 110.8 1193.1 110.8 1193.1 110.8 1184.7 102.4 1184.7"/><polygon class="cls-25" points="152.5 1184.7 144.2 1184.7 135.8 1184.7 127.5 1184.7 127.5 1193.1 127.5 1193.1 135.8 1193.1 144.2 1193.1 152.5 1193.1 160.9 1193.1 160.9 1193.1 160.9 1184.7 152.5 1184.7"/><rect class="cls-32" x="94.1" y="1117.9" width="8.4" height="8.36"/><polygon class="cls-32" points="85.7 1134.6 77.3 1134.6 77.3 1143 77.3 1151.3 77.3 1151.3 77.3 1159.7 69 1159.7 69 1168 69 1176.4 69 1184.7 77.3 1184.7 77.3 1176.4 77.3 1168 77.3 1159.7 85.7 1159.7 85.7 1151.3 85.7 1151.3 85.7 1143 85.7 1134.6 94.1 1134.6 94.1 1126.2 85.7 1126.2 85.7 1134.6"/><polygon class="cls-32" points="127.5 1151.3 127.5 1143 127.5 1134.6 119.1 1134.6 119.1 1143 119.1 1151.3 127.5 1151.3 127.5 1159.7 127.5 1168 135.8 1168 135.8 1159.7 135.8 1151.3 127.5 1151.3"/><polygon class="cls-32" points="127.5 1176.4 127.5 1176.4 127.5 1184.7 135.8 1184.7 135.8 1176.4 135.8 1168 127.5 1168 127.5 1176.4"/><polygon class="cls-30" points="77.3 1034.3 77.3 1042.7 85.7 1042.7 85.7 1034.3 85.7 1034.3 85.7 1026 77.3 1026 77.3 1034.3 77.3 1034.3"/><polygon class="cls-30" points="152.5 984.2 152.5 975.8 144.2 975.8 144.2 967.5 135.8 967.5 127.5 967.5 127.5 959.1 119.1 959.1 110.8 959.1 102.4 959.1 94.1 959.1 85.7 959.1 85.7 967.5 77.3 967.5 77.3 975.8 77.3 984.2 69 984.2 69 992.6 69 1000.9 69 1009.3 69 1017.6 69 1026 69 1026 69 1034.3 77.3 1034.3 77.3 1026 77.3 1026 77.3 1017.6 77.3 1009.3 77.3 1000.9 85.7 1000.9 85.7 1009.3 94.1 1009.3 94.1 1000.9 94.1 992.6 102.4 992.6 102.4 984.2 102.4 975.8 110.8 975.8 110.8 984.2 119.1 984.2 119.1 992.6 127.5 992.6 135.8 992.6 144.2 992.6 152.5 992.6 160.9 992.6 160.9 984.2 152.5 984.2"/><polygon class="cls-33" points="1161.9 1035.1 1161.9 1035.1 1161.9 1026.5 1153.2 1026.5 1153.2 1017.8 1144.6 1017.8 1136 1017.8 1127.3 1017.8 1118.7 1017.8 1110 1017.8 1110 1026.5 1101.4 1026.5 1101.4 1035.1 1092.7 1035.1 1092.7 1043.8 1092.7 1052.4 1092.7 1052.4 1092.7 1061.1 1084.1 1061.1 1084.1 1069.7 1084.1 1078.4 1084.1 1087 1092.7 1087 1101.4 1087 1110 1087 1110 1078.4 1110 1069.7 1110 1061.1 1118.7 1061.1 1118.7 1052.4 1118.7 1052.4 1118.7 1043.8 1118.7 1035.1 1127.3 1035.1 1136 1035.1 1136 1043.8 1136 1052.4 1136 1052.4 1144.6 1052.4 1144.6 1061.1 1144.6 1069.7 1136 1069.7 1136 1078.4 1136 1087 1144.6 1087 1153.2 1087 1161.9 1087 1161.9 1078.4 1161.9 1069.7 1161.9 1069.7 1161.9 1061.1 1161.9 1052.4 1161.9 1052.4 1161.9 1043.8 1161.9 1035.1"/><rect class="cls-34" x="1101.4" y="862.2" width="8.6" height="8.65"/><rect class="cls-34" x="1092.7" y="870.8" width="8.6" height="8.65"/><polygon class="cls-35" points="1092.7 888.1 1092.7 879.5 1084.1 879.5 1075.4 879.5 1075.4 888.1 1075.4 896.6 1075.4 896.8 1075.4 905.3 1075.4 913.9 1075.4 922.5 1075.4 922.5 1075.4 931.2 1084.1 931.2 1092.7 931.2 1092.7 922.5 1084.1 922.5 1084.1 913.9 1084.1 905.3 1084.1 896.8 1092.7 896.8 1092.7 905.4 1101.4 905.4 1101.4 896.8 1101.4 888.1 1092.7 888.1"/><rect class="cls-35" x="1084.1" y="931.4" width="8.6" height="8.65"/><polygon class="cls-36" points="1101.4 940 1101.4 931.4 1092.7 931.4 1092.7 940 1101.4 940 1101.4 948.7 1110 948.7 1110 940 1101.4 940"/><polygon class="cls-17" points="1075.4 1026.5 1075.4 1035.1 1084.1 1035.1 1092.7 1035.1 1092.7 1026.5 1084.1 1026.5 1075.4 1026.5"/><polygon class="cls-17" points="1092.7 1017.8 1092.7 1009.2 1084.1 1009.2 1075.4 1009.2 1075.4 1017.8 1075.4 1026.5 1084.1 1026.5 1092.7 1026.5 1101.4 1026.5 1101.4 1017.8 1092.7 1017.8"/><rect class="cls-37" x="1092.7" y="940" width="8.6" height="8.65"/><rect class="cls-37" x="1092.7" y="966" width="8.6" height="8.65"/><polygon class="cls-37" points="1084.1 983.2 1084.1 991.9 1084.1 1000.5 1092.7 1000.5 1092.7 991.9 1092.7 983.2 1092.7 974.6 1084.1 974.6 1084.1 983.2"/><polygon class="cls-37" points="1118.7 948.7 1110 948.7 1101.4 948.7 1101.4 957.3 1110 957.3 1118.7 957.3 1127.3 957.3 1136 957.3 1136 948.7 1127.3 948.7 1118.7 948.7"/><rect class="cls-37" x="1092.7" y="1000.5" width="8.6" height="8.65"/><polygon class="cls-37" points="1153.2 974.6 1153.2 983.2 1153.2 991.9 1153.2 1000.5 1153.2 1009.2 1161.9 1009.2 1161.9 1000.5 1161.9 991.9 1161.9 983.2 1161.9 974.6 1153.2 974.6"/><polygon class="cls-38" points="1144.6 1009.2 1136 1009.2 1127.3 1009.2 1118.7 1009.2 1110 1009.2 1101.4 1009.2 1092.7 1009.2 1092.7 1017.8 1101.4 1017.8 1110 1017.8 1118.7 1017.8 1127.3 1017.8 1136 1017.8 1144.6 1017.8 1153.2 1017.8 1153.2 1009.2 1144.6 1009.2"/><polygon class="cls-39" points="1179.2 991.9 1179.2 991.9 1179.2 983.2 1179.2 974.6 1170.5 974.6 1170.5 966 1170.5 966 1170.5 957.3 1161.9 957.3 1161.9 948.7 1153.2 948.7 1153.2 940 1144.6 940 1144.6 948.7 1136 948.7 1136 957.3 1127.3 957.3 1118.7 957.3 1110 957.3 1101.4 957.3 1101.4 948.7 1092.7 948.7 1092.7 940 1084.1 940 1084.1 948.7 1075.4 948.7 1075.4 957.3 1075.4 957.3 1066.8 957.3 1066.8 966 1066.8 974.6 1058.1 974.6 1058.1 983.2 1058.1 991.9 1066.8 991.9 1066.8 1000.5 1066.8 1009.2 1075.4 1009.2 1084.1 1009.2 1092.7 1009.2 1092.7 1000.5 1084.1 1000.5 1084.1 991.9 1084.1 983.2 1084.1 974.6 1092.7 974.6 1092.7 966 1101.4 966 1101.4 974.6 1092.7 974.6 1092.7 983.2 1092.7 991.9 1092.7 1000.5 1101.4 1000.5 1101.4 1009.2 1110 1009.2 1118.7 1009.2 1127.3 1009.2 1136 1009.2 1144.6 1009.2 1153.2 1009.2 1153.2 1000.5 1153.2 991.9 1153.2 983.2 1153.2 974.6 1161.9 974.6 1161.9 983.2 1161.9 991.9 1170.5 991.9 1170.5 991.9 1161.9 991.9 1161.9 1000.5 1170.5 1000.5 1170.5 1009.2 1179.2 1009.2 1187.8 1009.2 1187.8 1000.5 1187.8 991.9 1179.2 991.9"/><rect class="cls-17" x="1179.2" y="1009.2" width="8.6" height="8.65"/><rect class="cls-17" x="1187.8" y="1009.2" width="8.6" height="8.65"/><rect class="cls-17" x="1187.8" y="1017.8" width="8.6" height="8.65"/><polygon class="cls-25" points="1110 1087 1101.4 1087 1092.7 1087 1084.1 1087 1084.1 1095.7 1084.1 1095.7 1092.7 1095.7 1101.4 1095.7 1110 1095.7 1118.7 1095.7 1118.7 1095.7 1118.7 1087 1110 1087"/><polygon class="cls-25" points="1161.9 1087 1153.2 1087 1144.6 1087 1136 1087 1136 1095.7 1136 1095.7 1144.6 1095.7 1153.2 1095.7 1161.9 1095.7 1170.5 1095.7 1170.5 1095.7 1170.5 1087 1161.9 1087"/><rect class="cls-40" x="1101.4" y="1017.8" width="8.7" height="8.65"/><rect class="cls-40" x="1092.7" y="1026.5" width="8.6" height="8.65"/><polygon class="cls-40" points="1084.1 1043.8 1084.1 1052.4 1084.1 1052.4 1084.1 1061.1 1075.4 1061.1 1075.4 1069.7 1075.4 1078.4 1075.4 1087 1084.1 1087 1084.1 1078.4 1084.1 1069.7 1084.1 1061.1 1092.7 1061.1 1092.7 1052.4 1092.7 1052.4 1092.7 1043.8 1092.7 1035.1 1084.1 1035.1 1084.1 1043.8"/><polygon class="cls-40" points="1136 1052.4 1136 1043.8 1136 1035.1 1127.3 1035.1 1127.3 1043.8 1127.3 1052.4 1136 1052.4 1136 1061.1 1136 1069.7 1144.6 1069.7 1144.6 1061.1 1144.6 1052.4 1136 1052.4"/><polygon class="cls-40" points="1136 1078.4 1136 1087 1144.6 1087 1144.6 1078.4 1144.6 1069.7 1136 1069.7 1136 1078.4"/><polygon class="cls-25" points="1187.8 1052.4 1187.8 1043.8 1187.8 1035.1 1187.8 1026.5 1187.8 1017.8 1179.2 1017.8 1179.2 1026.5 1179.2 1035.1 1179.2 1035.1 1179.2 1043.8 1179.2 1052.4 1179.2 1052.4 1179.2 1052.4 1179.2 1061.1 1179.2 1069.7 1179.2 1069.7 1179.2 1078.4 1179.2 1087 1179.2 1095.7 1187.8 1095.7 1187.8 1087 1187.8 1078.4 1187.8 1069.7 1187.8 1069.7 1187.8 1061.1 1187.8 1052.4 1187.8 1052.4"/><rect class="cls-17" x="1092.7" y="862.2" width="8.6" height="8.65"/><rect class="cls-17" x="1084.1" y="870.8" width="8.6" height="8.65"/><path class="cls-17" d="M1153.2,905.4V870.8h-8.6v-8.6H1110v8.6h-8.6v8.7h-8.7v8.6h8.7v17.3h-8.7v-8.6h-8.6v25.9h8.6v8.7h8.7v17.3h43.2V940h8.6v-8.6h8.7v-26Zm-17.3-34.6v8.7h0v-8.7Z"/><rect class="cls-41" x="983.5" y="884.4" width="7.8" height="7.83"/><rect class="cls-41" x="975.7" y="892.2" width="7.8" height="7.83"/><polygon class="cls-41" points="1007 876.5 999.2 876.5 991.4 876.5 991.4 884.4 999.2 884.4 1007 884.4 1014.9 884.4 1014.9 876.5 1007 876.5"/><polygon class="cls-42" points="960.1 939.1 960.1 931.3 960.1 923.5 952.2 923.5 952.2 931.3 952.2 939.1 960.1 939.1 960.1 947 967.9 947 967.9 939.1 960.1 939.1"/><polygon class="cls-42" points="952.2 892.2 944.4 892.2 944.4 892.2 936.6 892.2 936.6 900 944.4 900 944.4 900 952.2 900 952.2 892.2"/><polygon class="cls-43" points="983.5 954.8 983.5 947 975.7 947 975.7 947 975.7 939.1 967.9 939.1 967.9 947 967.9 947 967.9 954.8 975.7 954.8 983.5 954.8 983.5 962.6 991.4 962.6 991.4 954.8 983.5 954.8"/><polygon class="cls-18" points="967.9 1025.2 960.1 1025.2 952.2 1025.2 952.2 1033.1 960.1 1033.1 967.9 1033.1 975.7 1033.1 975.7 1025.2 967.9 1025.2"/><polygon class="cls-18" points="952.2 1033.1 952.2 1040.9 960.1 1040.9 967.9 1040.9 967.9 1033.1 960.1 1033.1 952.2 1033.1"/><polygon class="cls-44" points="1030.5 986.1 1030.5 993.9 1030.5 1001.8 1030.5 1009.6 1030.5 1017.4 1030.5 1025.2 1038.3 1025.2 1038.3 1017.4 1038.3 1009.6 1038.3 1001.8 1038.3 993.9 1038.3 986.1 1030.5 986.1"/><polygon class="cls-44" points="975.7 986.1 975.7 993.9 975.7 1001.8 983.5 1001.8 983.5 993.9 983.5 986.1 975.7 986.1"/><polygon class="cls-44" points="967.9 1009.6 967.9 1017.4 967.9 1025.2 975.7 1025.2 975.7 1033.1 983.5 1033.1 983.5 1025.2 983.5 1017.4 975.7 1017.4 975.7 1009.6 975.7 1009.6 975.7 1001.8 967.9 1001.8 967.9 1009.6"/><polygon class="cls-44" points="967.9 1040.9 960.1 1040.9 960.1 1048.7 960.1 1056.5 960.1 1064.4 960.1 1072.2 967.9 1072.2 967.9 1064.4 967.9 1056.5 967.9 1048.7 967.9 1040.9 975.7 1040.9 975.7 1033.1 967.9 1033.1 967.9 1040.9"/><rect class="cls-44" x="960.1" y="1072.2" width="7.8" height="7.83"/><path class="cls-45" d="M1030.5,1048.7v-7.8h0V970.4h-7.8v-7.8h-7.8v7.8H991.4v-7.8h-7.9v7.8h-7.8v15.7h7.8v15.7h-7.8v15.6h7.8v15.7h-7.8v7.8h-7.8v7.8h0v7.8h0v7.9h0V1080h23.5v-15.6h0V1080h39.1v-15.6h0v-7.9h0v-7.8Zm-23.5,0h0v-7.8h0Zm-15.6,7.8h0v-7.8h0v7.8Z"/><rect class="cls-18" x="975.7" y="1080" width="7.8" height="7.83"/><polygon class="cls-25" points="975.7 1080 967.9 1080 967.9 1087.9 967.9 1095.7 975.7 1095.7 983.5 1095.7 983.5 1087.9 975.7 1087.9 975.7 1080"/><rect class="cls-25" x="983.5" y="1087.9" width="7.8" height="7.83"/><rect class="cls-18" x="1014.9" y="1080" width="7.8" height="7.83"/><polygon class="cls-25" points="1022.7 1087.9 1014.9 1087.9 1014.9 1080 1007 1080 1007 1087.9 1007 1095.7 1014.9 1095.7 1022.7 1095.7 1030.5 1095.7 1030.5 1087.9 1022.7 1087.9"/><path class="cls-35" d="M1030.5,876.5h-7.8v-7.8H983.5v7.8h-7.8v7.9h-7.8V868.7H952.2v15.7h0v-7.9h-7.8v7.9h-7.8v7.8h15.6V900h0v23.5h7.9v15.6h15.6V923.5h7.8V907.8h7.9V892.2h-7.9V900h-7.8v-7.8h7.8v-7.8h7.9v-7.9h23.5v7.9H991.4v7.8h7.8V900h7.8v7.8h23.5v7.9h0v7.8h7.8v-7.8h0v-7.9h0V884.4h-7.8ZM1014.9,900v-7.8h0V900Z"/><rect class="cls-35" x="1038.3" y="915.7" width="7.8" height="7.83"/><polygon class="cls-18" points="1038.3 1025.2 1038.3 1025.2 1038.3 1025.2 1030.5 1025.2 1030.5 1033.1 1030.5 1033.1 1038.3 1033.1 1038.3 1040.9 1046.2 1040.9 1046.2 1033.1 1046.2 1025.2 1038.3 1025.2"/><polygon class="cls-46" points="967.9 954.8 967.9 962.6 960.1 962.6 960.1 970.4 960.1 970.4 952.2 970.4 952.2 978.3 952.2 986.1 944.4 986.1 944.4 993.9 944.4 1001.8 952.2 1001.8 952.2 1001.8 944.4 1001.8 944.4 1009.6 944.4 1017.4 952.2 1017.4 952.2 1025.2 960.1 1025.2 967.9 1025.2 967.9 1017.4 967.9 1009.6 967.9 1001.8 975.7 1001.8 975.7 993.9 975.7 986.1 975.7 978.3 975.7 970.4 983.5 970.4 983.5 962.6 983.5 954.8 975.7 954.8 967.9 954.8"/><polygon class="cls-46" points="999.2 962.6 991.4 962.6 991.4 970.4 999.2 970.4 1007 970.4 1014.9 970.4 1014.9 962.6 1007 962.6 999.2 962.6"/><polygon class="cls-46" points="1046.2 986.1 1046.2 978.3 1046.2 978.3 1046.2 970.4 1038.3 970.4 1038.3 962.6 1030.5 962.6 1030.5 954.8 1022.7 954.8 1022.7 962.6 1022.7 970.4 1030.5 970.4 1030.5 978.3 1030.5 986.1 1038.3 986.1 1038.3 993.9 1038.3 1001.8 1038.3 1001.8 1038.3 1009.6 1038.3 1017.4 1038.3 1025.2 1046.2 1025.2 1046.2 1025.2 1054 1025.2 1054 1017.4 1054 1009.6 1046.2 1009.6 1046.2 1009.6 1054 1009.6 1054 1001.8 1054 993.9 1054 986.1 1046.2 986.1"/><polygon class="cls-18" points="1038.3 931.3 1038.3 923.5 1030.5 923.5 1030.5 915.7 1030.5 907.8 1022.7 907.8 1014.9 907.8 1007 907.8 1007 900 999.2 900 999.2 892.2 991.4 892.2 991.4 900 991.4 907.8 983.5 907.8 983.5 915.7 983.5 923.5 975.7 923.5 975.7 931.3 975.7 939.1 975.7 947 983.5 947 983.5 954.8 991.4 954.8 991.4 962.6 999.2 962.6 1007 962.6 1014.9 962.6 1022.7 962.6 1022.7 954.8 1030.5 954.8 1030.5 947 1038.3 947 1038.3 939.1 1038.3 931.3 1038.3 931.3"/><rect class="cls-30" x="1508" y="376.9" width="8.3" height="8.28"/><polygon class="cls-17" points="1574.2 509.3 1582.5 509.3 1590.7 509.3 1590.7 517.6 1582.5 517.6 1574.2 517.6 1565.9 517.6 1565.9 509.3 1574.2 509.3"/><polygon class="cls-17" points="1590.7 517.6 1590.7 525.9 1582.5 525.9 1574.2 525.9 1574.2 517.6 1582.5 517.6 1590.7 517.6"/><polygon class="cls-47" points="1524.5 443.1 1532.8 443.1 1541.1 443.1 1549.3 443.1 1549.3 451.4 1541.1 451.4 1541.1 459.7 1541.1 467.9 1541.1 476.2 1532.8 476.2 1524.5 476.2 1524.5 467.9 1524.5 459.7 1524.5 451.4 1516.2 451.4 1516.2 443.1 1524.5 443.1"/><polygon class="cls-47" points="1541.1 476.2 1541.1 484.5 1541.1 492.8 1541.1 501.1 1532.8 501.1 1524.5 501.1 1524.5 492.8 1524.5 484.5 1524.5 476.2 1532.8 476.2 1541.1 476.2"/><rect class="cls-48" x="1557.6" y="459.7" width="8.3" height="8.28"/><polygon class="cls-48" points="1574.2 476.2 1574.2 484.5 1574.2 492.8 1574.2 492.8 1574.2 501.1 1565.9 501.1 1565.9 492.8 1565.9 492.8 1565.9 484.5 1565.9 476.2 1565.9 467.9 1574.2 467.9 1574.2 476.2"/><polygon class="cls-48" points="1508 467.9 1508 476.2 1508 484.5 1508 492.8 1508 501.1 1499.7 501.1 1499.7 492.8 1499.7 484.5 1499.7 476.2 1499.7 467.9 1508 467.9"/><rect class="cls-17" x="1491.4" y="501.1" width="8.3" height="8.28"/><polygon class="cls-49" points="1574.2 525.9 1582.5 525.9 1582.5 534.2 1574.2 534.2 1574.2 525.9 1565.9 525.9 1565.9 517.6 1574.2 517.6 1574.2 525.9"/><polygon class="cls-49" points="1508 501.1 1516.2 501.1 1524.5 501.1 1532.8 501.1 1541.1 501.1 1549.3 501.1 1557.6 501.1 1565.9 501.1 1565.9 501.1 1574.2 501.1 1574.2 509.3 1565.9 509.3 1565.9 517.6 1557.6 517.6 1557.6 509.3 1549.3 509.3 1541.1 509.3 1532.8 509.3 1524.5 509.3 1516.2 509.3 1508 509.3 1499.7 509.3 1499.7 501.1 1508 501.1"/><rect class="cls-49" x="1582.5" y="534.2" width="8.3" height="8.28"/><path class="cls-50" d="M1483.1,533.7v8.2h16.6v.5h33.1V525.9h0v16.5h49.7v-8.2h-8.3v-8.3h-8.3v-8.3h-8.3v-8.3h-57.9v16.6h-8.3v7.8Zm16.6,0h0v-7.8h0Z"/><polygon class="cls-17" points="1541.1 542.4 1549.3 542.4 1557.6 542.4 1565.9 542.4 1565.9 550.7 1565.9 559 1565.9 567.3 1565.9 575.6 1557.6 575.6 1549.3 575.6 1549.3 567.3 1549.3 559 1557.6 559 1557.6 559 1549.3 559 1549.3 550.7 1541.1 550.7 1541.1 542.4"/><polygon class="cls-25" points="1557.6 567.3 1565.9 567.3 1565.9 575.6 1565.9 583.8 1557.6 583.8 1549.3 583.8 1549.3 575.6 1557.6 575.6 1557.6 567.3"/><rect class="cls-25" x="1541.1" y="575.6" width="8.3" height="8.28"/><polygon class="cls-25" points="1508 575.6 1516.2 575.6 1516.2 567.3 1524.5 567.3 1524.5 575.6 1524.5 583.8 1516.2 583.8 1508 583.8 1499.7 583.8 1499.7 575.6 1508 575.6"/><polygon class="cls-17" points="1508 542.4 1516.2 542.4 1524.5 542.4 1524.5 550.7 1524.5 559 1524.5 567.3 1516.2 567.3 1516.2 575.6 1508 575.6 1508 567.3 1508 559 1508 550.7 1499.7 550.7 1499.7 542.4 1508 542.4"/><rect class="cls-51" x="1516.2" y="368.6" width="8.3" height="8.28"/><rect class="cls-51" x="1524.5" y="360.3" width="8.3" height="8.28"/><rect class="cls-51" x="1557.6" y="360.3" width="8.3" height="8.28"/><rect class="cls-51" x="1565.9" y="368.6" width="8.3" height="8.28"/><rect class="cls-51" x="1574.2" y="376.9" width="8.3" height="8.28"/><rect class="cls-51" x="1549.4" y="352.1" width="8.3" height="8.28"/><rect class="cls-51" x="1508" y="376.9" width="8.3" height="8.28"/><rect class="cls-30" x="1565.9" y="360.3" width="8.3" height="8.28"/><rect class="cls-30" x="1557.6" y="352.1" width="8.3" height="8.28"/><polygon class="cls-30" points="1491.4 401.7 1491.4 393.4 1499.7 393.4 1499.7 393.4 1499.7 385.2 1499.7 385.2 1491.4 385.2 1483.1 385.2 1483.1 376.9 1491.4 376.9 1491.4 368.6 1499.7 368.6 1499.7 360.3 1508 360.3 1508 352.1 1516.2 352.1 1524.5 352.1 1532.8 352.1 1541.1 352.1 1549.3 352.1 1549.3 360.3 1557.6 360.3 1557.6 368.6 1565.9 368.6 1565.9 376.9 1574.2 376.9 1574.2 385.2 1582.5 385.2 1582.5 376.9 1574.2 376.9 1574.2 368.6 1582.5 368.6 1582.5 376.9 1590.7 376.9 1590.7 385.2 1590.7 393.4 1599 393.4 1599 401.7 1607.3 401.7 1607.3 410 1615.6 410 1615.6 418.3 1623.8 418.3 1623.8 426.6 1615.6 426.6 1607.3 426.6 1607.3 418.3 1607.3 418.3 1607.3 418.3 1607.3 426.6 1599 426.6 1599 418.3 1599 418.3 1599 426.6 1590.7 426.6 1582.5 426.6 1574.2 426.6 1574.2 418.3 1574.2 418.3 1574.2 426.6 1574.2 426.6 1574.2 434.8 1565.9 434.8 1565.9 426.6 1565.9 426.6 1565.9 418.3 1565.9 410 1565.9 401.7 1557.6 401.7 1557.6 393.4 1557.6 385.2 1549.3 385.2 1549.3 376.9 1549.3 368.6 1541.1 368.6 1541.1 376.9 1532.8 376.9 1532.8 385.2 1524.5 385.2 1516.2 385.2 1516.2 376.9 1524.5 376.9 1524.5 376.9 1524.5 368.6 1532.8 368.6 1532.8 360.3 1524.5 360.3 1524.5 368.6 1516.2 368.6 1516.2 376.9 1508 376.9 1508 385.2 1508 393.4 1508 393.4 1508 401.7 1499.7 401.7 1499.7 401.7 1491.4 401.7"/><polygon class="cls-30" points="1483.1 418.3 1483.1 410 1491.4 410 1491.4 401.7 1499.7 401.7 1499.7 410 1499.7 418.3 1499.7 426.6 1491.4 426.6 1483.1 426.6 1474.9 426.6 1474.9 418.3 1483.1 418.3"/><polygon class="cls-17" points="1499.7 509.3 1499.7 509.3 1508 509.3 1508 517.6 1499.7 517.6 1499.7 517.6 1491.4 517.6 1491.4 509.3 1499.7 509.3"/><rect class="cls-17" x="1491.4" y="517.6" width="8.3" height="8.28"/><polygon class="cls-52" points="1549.3 443.1 1557.6 443.1 1557.6 434.8 1565.9 434.8 1574.2 434.8 1574.2 443.1 1582.5 443.1 1582.5 451.4 1582.5 451.4 1590.7 451.4 1590.7 459.7 1590.7 467.9 1599 467.9 1599 476.2 1599 484.5 1590.7 484.5 1590.7 484.5 1599 484.5 1599 492.8 1599 501.1 1590.7 501.1 1590.7 501.1 1590.7 509.3 1582.5 509.3 1574.2 509.3 1574.2 501.1 1574.2 492.8 1574.2 484.5 1574.2 476.2 1574.2 467.9 1565.9 467.9 1565.9 459.7 1557.6 459.7 1557.6 467.9 1565.9 467.9 1565.9 476.2 1565.9 484.5 1565.9 492.8 1565.9 501.1 1557.6 501.1 1549.3 501.1 1541.1 501.1 1541.1 492.8 1541.1 484.5 1541.1 476.2 1541.1 467.9 1541.1 459.7 1541.1 451.4 1549.3 451.4 1549.3 443.1"/><polygon class="cls-52" points="1491.4 467.9 1491.4 459.7 1491.4 459.7 1491.4 451.4 1499.7 451.4 1499.7 443.1 1508 443.1 1508 434.8 1516.2 434.8 1516.2 443.1 1516.2 443.1 1516.2 451.4 1524.5 451.4 1524.5 459.7 1524.5 467.9 1524.5 476.2 1524.5 484.5 1524.5 492.8 1524.5 501.1 1516.2 501.1 1508 501.1 1508 492.8 1508 484.5 1508 476.2 1508 467.9 1499.7 467.9 1499.7 476.2 1499.7 484.5 1499.7 484.5 1499.7 492.8 1499.7 501.1 1499.7 501.1 1499.7 509.3 1491.4 509.3 1491.4 509.3 1483.1 509.3 1483.1 501.1 1483.1 492.8 1491.4 492.8 1491.4 492.8 1483.1 492.8 1483.1 484.5 1483.1 476.2 1483.1 467.9 1491.4 467.9"/><polygon class="cls-17" points="1508 401.7 1508 393.4 1508 385.2 1516.2 385.2 1524.5 385.2 1532.8 385.2 1532.8 376.9 1541.1 376.9 1541.1 368.6 1549.3 368.6 1549.3 376.9 1549.3 385.2 1557.6 385.2 1557.6 393.4 1557.6 401.7 1565.9 401.7 1565.9 410 1565.9 418.3 1565.9 426.6 1565.9 434.8 1557.6 434.8 1557.6 443.1 1549.3 443.1 1541.1 443.1 1532.8 443.1 1524.5 443.1 1516.2 443.1 1516.2 434.8 1508 434.8 1508 426.6 1499.7 426.6 1499.7 418.3 1499.7 410 1499.7 401.7 1508 401.7"/><rect class="cls-53" x="1949.1" y="951" width="8.2" height="8.19"/><rect class="cls-53" x="1973.7" y="975.6" width="8.2" height="8.19"/><rect class="cls-53" x="1965.5" y="967.4" width="8.2" height="8.19"/><rect class="cls-53" x="1957.3" y="959.2" width="8.2" height="8.19"/><polygon class="cls-53" points="1940.9 942.8 1932.7 942.8 1932.7 951 1940.9 951 1949.1 951 1949.1 942.8 1940.9 942.8"/><rect class="cls-54" x="1965.5" y="942.8" width="8.2" height="8.19"/><polygon class="cls-54" points="1965.5 934.6 1965.5 926.5 1957.3 926.5 1957.3 926.5 1949.1 926.5 1949.1 934.6 1957.3 934.6 1957.3 942.8 1965.5 942.8 1973.7 942.8 1973.7 934.6 1965.5 934.6"/><rect class="cls-55" x="1973.7" y="1008.3" width="8.2" height="8.19"/><polygon class="cls-55" points="1981.8 983.8 1981.8 992 1981.8 1000.1 1981.8 1008.3 1990 1008.3 1990 1000.1 1990 992 1990 983.8 1981.8 983.8"/><polygon class="cls-56" points="1965.5 1008.3 1965.5 1016.5 1965.5 1016.5 1957.3 1016.5 1957.3 1024.7 1965.5 1024.7 1973.7 1024.7 1973.7 1016.5 1973.7 1016.5 1973.7 1008.3 1965.5 1008.3"/><polygon class="cls-18" points="1957.3 992 1957.3 983.8 1957.3 975.6 1949.1 975.6 1949.1 967.4 1949.1 959.2 1940.9 959.2 1940.9 967.4 1932.7 967.4 1932.7 975.6 1924.5 975.6 1916.3 975.6 1908.2 975.6 1908.2 983.8 1908.2 992 1900 992 1900 1000.1 1900 1008.3 1900 1016.5 1908.2 1016.5 1908.2 1024.7 1916.3 1024.7 1916.3 1032.9 1924.5 1032.9 1932.7 1032.9 1940.9 1032.9 1949.1 1032.9 1957.3 1032.9 1957.3 1024.7 1957.3 1016.5 1965.5 1016.5 1965.5 1008.3 1965.5 1000.1 1965.5 992 1957.3 992"/><polygon class="cls-57" points="1973.7 1049.3 1973.7 1057.4 1973.7 1065.6 1973.7 1073.8 1973.7 1082 1973.7 1090.2 1981.8 1090.2 1981.8 1082 1981.8 1073.8 1981.8 1065.6 1981.8 1057.4 1981.8 1049.3 1973.7 1049.3"/><polygon class="cls-18" points="1990 1057.4 1981.8 1057.4 1981.8 1065.6 1981.8 1073.8 1981.8 1082 1981.8 1090.2 1973.7 1090.2 1973.7 1098.4 1965.5 1098.4 1965.5 1106.6 1973.7 1106.6 1981.8 1106.6 1990 1106.6 1990 1098.4 1990 1090.2 1990 1090.2 1998.2 1090.2 1998.2 1082 1998.2 1073.8 1990 1073.8 1990 1073.8 1998.2 1073.8 1998.2 1065.6 1998.2 1057.4 1990 1057.4"/><polygon class="cls-54" points="1973.7 1024.7 1965.5 1024.7 1957.3 1024.7 1957.3 1032.9 1949.1 1032.9 1949.1 1041.1 1940.9 1041.1 1940.9 1049.3 1932.7 1049.3 1924.5 1049.3 1924.5 1041.1 1916.3 1041.1 1916.3 1032.9 1916.3 1032.9 1916.3 1024.7 1908.2 1024.7 1908.2 1032.9 1908.2 1032.9 1908.2 1041.1 1908.2 1049.3 1900 1049.3 1900 1057.4 1900 1065.6 1900 1073.8 1900 1082 1900 1090.2 1908.2 1090.2 1916.3 1090.2 1924.5 1090.2 1932.7 1090.2 1940.9 1090.2 1949.1 1090.2 1957.3 1090.2 1965.5 1090.2 1973.7 1090.2 1973.7 1082 1973.7 1073.8 1973.7 1065.6 1973.7 1057.4 1973.7 1049.3 1965.5 1049.3 1965.5 1041.1 1973.7 1041.1 1973.7 1032.9 1981.8 1032.9 1981.8 1024.7 1973.7 1024.7"/><rect class="cls-58" x="1965.5" y="1090.2" width="8.2" height="8.19"/><rect class="cls-58" x="1957.3" y="1098.4" width="8.2" height="8.19"/><polygon class="cls-58" points="1973.7 1106.6 1965.5 1106.6 1965.5 1114.8 1973.7 1114.8 1973.7 1122.9 1973.7 1131.1 1981.8 1131.1 1981.8 1122.9 1981.8 1114.8 1981.8 1114.8 1981.8 1106.6 1973.7 1106.6"/><rect class="cls-18" x="1957.3" y="1147.5" width="8.2" height="8.19"/><polygon class="cls-18" points="1965.5 1131.1 1957.3 1131.1 1949.1 1131.1 1949.1 1139.3 1957.3 1139.3 1957.3 1147.5 1965.5 1147.5 1965.5 1147.5 1973.7 1147.5 1973.7 1139.3 1973.7 1131.1 1965.5 1131.1"/><polygon class="cls-18" points="1924.5 1131.1 1916.3 1131.1 1908.2 1131.1 1908.2 1139.3 1916.3 1139.3 1916.3 1147.5 1916.3 1155.7 1924.5 1155.7 1924.5 1147.5 1932.7 1147.5 1932.7 1139.3 1932.7 1131.1 1924.5 1131.1"/><path class="cls-27" d="M1981.8,967.4v-8.2h-8.1V951h-8.2v-8.2h-8.2v-8.2h-41v8.2h-8.1V951H1900v8.2h-8.2v24.6h8.2v-8.2h0v8.2h-8.2V992h16.4v-8.2h0v-8.2h24.5v-8.2h8.2v-8.2h8.2V951h-16.4v-8.2h16.4V951h8.2v8.2h8.2v8.2h8.2v8.2h8.1v8.2h-8.1v-8.2h-8.2v-8.2h-8.2v-8.2h-8.2v16.4h8.2V992h8.2v16.3h16.3V983.8h8.2V967.4Zm-57.3,0v-8.2h0v8.2Z"/><polygon class="cls-27" points="1998.2 926.5 1998.2 918.3 1990 918.3 1990 910.1 1981.8 910.1 1973.7 910.1 1965.5 910.1 1957.3 910.1 1957.3 918.3 1957.3 926.5 1965.5 926.5 1965.5 934.6 1973.7 934.6 1981.8 934.6 1990 934.6 1998.2 934.6 2006.4 934.6 2006.4 926.5 1998.2 926.5"/><polygon class="cls-27" points="1891.8 1000.1 1891.8 1008.3 1900 1008.3 1900 1000.1 1900 992 1891.8 992 1891.8 1000.1"/><rect class="cls-59" x="1981.8" y="1032.9" width="8.2" height="8.19"/><polygon class="cls-59" points="1990 1041.1 1981.8 1041.1 1981.8 1041.1 1981.8 1032.9 1973.7 1032.9 1973.7 1041.1 1965.5 1041.1 1965.5 1049.3 1973.7 1049.3 1981.8 1049.3 1981.8 1057.4 1990 1057.4 1998.2 1057.4 1998.2 1049.3 1998.2 1041.1 1990 1041.1"/><polygon class="cls-59" points="1924.5 1049.3 1932.7 1049.3 1940.9 1049.3 1940.9 1041.1 1949.1 1041.1 1949.1 1032.9 1940.9 1032.9 1932.7 1032.9 1924.5 1032.9 1916.3 1032.9 1916.3 1041.1 1924.5 1041.1 1924.5 1049.3"/><polygon class="cls-59" points="1965.5 1106.6 1957.3 1106.6 1957.3 1098.4 1965.5 1098.4 1965.5 1090.2 1957.3 1090.2 1949.1 1090.2 1940.9 1090.2 1932.7 1090.2 1924.5 1090.2 1916.3 1090.2 1908.2 1090.2 1908.2 1098.4 1908.2 1106.6 1908.2 1106.6 1908.2 1098.4 1900 1098.4 1900 1106.6 1900 1114.8 1900 1114.8 1900 1122.9 1900 1131.1 1900 1131.1 1908.2 1131.1 1908.2 1131.1 1916.3 1131.1 1924.5 1131.1 1932.7 1131.1 1932.7 1122.9 1932.7 1114.8 1932.7 1114.8 1932.7 1122.9 1932.7 1131.1 1940.9 1131.1 1949.1 1131.1 1957.3 1131.1 1965.5 1131.1 1973.7 1131.1 1973.7 1122.9 1973.7 1114.8 1965.5 1114.8 1965.5 1106.6"/><polygon class="cls-59" points="1900 1049.3 1900 1049.3 1908.2 1049.3 1908.2 1041.1 1908.2 1032.9 1900 1032.9 1900 1041.1 1891.8 1041.1 1891.8 1049.3 1891.8 1049.3 1891.8 1057.4 1900 1057.4 1900 1049.3"/><polygon class="cls-18" points="1900 1090.2 1900 1090.2 1900 1082 1900 1073.8 1900 1073.8 1900 1065.6 1900 1057.4 1891.8 1057.4 1891.8 1065.6 1891.8 1073.8 1891.8 1082 1891.8 1090.2 1891.8 1090.2 1891.8 1098.4 1900 1098.4 1900 1098.4 1908.2 1098.4 1908.2 1090.2 1900 1090.2"/><rect class="cls-18" x="1891.8" y="1098.4" width="8.2" height="8.19"/><polygon class="cls-54" points="1949.1 1163.9 1949.1 1163.9 1957.3 1163.9 1957.3 1163.9 1957.3 1155.7 1949.1 1155.7 1949.1 1163.9"/><polygon class="cls-54" points="1965.5 1147.5 1965.5 1155.7 1957.3 1155.7 1957.3 1163.9 1957.3 1163.9 1965.5 1163.9 1973.7 1163.9 1973.7 1155.7 1973.7 1147.5 1965.5 1147.5"/><polygon class="cls-54" points="1924.5 1147.5 1924.5 1155.7 1916.3 1155.7 1908.2 1155.7 1908.2 1163.9 1908.2 1163.9 1916.3 1163.9 1924.5 1163.9 1932.7 1163.9 1932.7 1163.9 1932.7 1155.7 1932.7 1147.5 1924.5 1147.5"/></svg>