<svg id="Layer_4" data-name="Layer 4" xmlns="http://www.w3.org/2000/svg" viewBox="0 0 658.2 1245.5"><defs><style>.cls-1{fill:#af764f;}.cls-2{fill:#326975;}.cls-3{fill:#458a9c;}.cls-4{fill:#ffd557;}.cls-5{fill:#b5881a;}.cls-6{fill:#3f3f3f;}.cls-7{fill:#fff;}.cls-8{fill:#444443;}.cls-9{fill:#201600;}.cls-10{fill:#595758;}.cls-11{fill:#8d5933;}.cls-12{fill:#db9a54;}.cls-13{fill:#edb272;}.cls-14{fill:#9b9b9b;}</style></defs><rect class="cls-1" x="299" y="21.4" width="30.1" height="30.07"/><rect class="cls-2" x="299" y="292" width="30.1" height="30.07"/><polygon class="cls-3" points="299 322.1 299 352.1 299 382.2 299 412.3 299 442.4 299 472.4 299 502.5 329.1 502.5 329.1 472.4 329.1 442.4 329.1 412.3 329.1 382.2 329.1 352.1 329.1 322.1 299 322.1"/><rect class="cls-4" x="299" y="622.8" width="30.1" height="30.07"/><rect class="cls-1" x="269" y="51.5" width="30.1" height="30.07"/><rect class="cls-5" x="269" y="622.8" width="30.1" height="30.07"/><polygon class="cls-6" points="299 743 269 743 269 773.1 269 803.2 269 833.2 269 863.3 269 893.4 269 923.4 269 953.5 269 983.6 269 1013.6 269 1043.7 269 1073.8 269 1103.8 269 1133.9 269 1164 299 1164 299 1133.9 299 1103.8 299 1073.8 299 1043.7 299 1013.6 299 983.6 299 953.5 299 923.4 299 893.4 299 863.3 299 833.2 299 803.2 299 773.1 329.1 773.1 329.1 743 299 743"/><polygon class="cls-7" points="178.8 51.5 178.8 81.5 178.8 111.6 208.8 111.6 208.8 81.5 208.8 51.5 178.8 51.5"/><rect class="cls-8" x="178.8" y="1164" width="30.1" height="30.07"/><polygon class="cls-9" points="269 1164 238.9 1164 208.8 1164 208.8 1194.1 178.8 1194.1 178.8 1164 148.7 1164 148.7 1194.1 148.7 1224.1 178.8 1224.1 208.8 1224.1 238.9 1224.1 269 1224.1 299 1224.1 299 1194.1 299 1164 269 1164"/><polygon class="cls-10" points="238.9 261.9 208.8 261.9 178.8 261.9 178.8 231.9 148.7 231.9 148.7 201.8 148.7 171.7 178.8 171.7 178.8 141.7 208.8 141.7 208.8 111.6 178.8 111.6 178.8 81.5 148.7 81.5 148.7 111.6 118.7 111.6 118.7 141.7 88.6 141.7 88.6 171.7 88.6 201.8 88.6 231.9 88.6 261.9 118.7 261.9 118.7 292 148.7 292 148.7 322.1 178.8 322.1 178.8 352.1 208.8 352.1 208.8 382.2 208.8 412.3 208.8 442.4 208.8 472.4 208.8 502.5 208.8 532.6 208.8 562.6 208.8 592.7 208.8 622.8 238.9 622.8 269 622.8 269 592.7 269 562.6 269 532.6 269 502.5 269 472.4 269 442.4 269 412.3 269 382.2 269 352.1 269 322.1 269 292 269 261.9 238.9 261.9"/><polygon class="cls-6" points="178.8 352.1 178.8 322.1 148.7 322.1 148.7 292 118.7 292 118.7 261.9 88.6 261.9 88.6 231.9 88.6 201.8 88.6 171.7 58.5 171.7 58.5 201.8 58.5 231.9 58.5 261.9 58.5 292 88.6 292 88.6 322.1 118.7 322.1 118.7 352.1 148.7 352.1 148.7 382.2 178.8 382.2 178.8 412.3 178.8 442.4 178.8 472.4 178.8 502.5 178.8 532.6 178.8 562.6 178.8 592.7 178.8 622.8 208.8 622.8 208.8 592.7 208.8 562.6 208.8 532.6 208.8 502.5 208.8 472.4 208.8 442.4 208.8 412.3 208.8 382.2 208.8 352.1 178.8 352.1"/><rect class="cls-1" x="329.1" y="21.4" width="30.1" height="30.07"/><polygon class="cls-7" points="329.1 261.9 329.1 292 329.1 322.1 329.1 352.1 329.1 382.2 329.1 412.3 329.1 442.4 329.1 472.4 329.1 502.5 299 502.5 299 472.4 299 442.4 299 412.3 299 382.2 299 352.1 299 322.1 299 292 299 261.9 269 261.9 269 292 269 322.1 269 352.1 269 382.2 269 412.3 269 442.4 269 472.4 269 502.5 269 532.6 269 562.6 269 592.7 269 622.8 299 622.8 329.1 622.8 359.2 622.8 359.2 592.7 359.2 562.6 359.2 532.6 359.2 502.5 359.2 472.4 359.2 442.4 359.2 412.3 359.2 382.2 359.2 352.1 359.2 322.1 359.2 292 359.2 261.9 329.1 261.9"/><polygon class="cls-11" points="269 21.4 238.9 21.4 238.9 51.5 269 51.5 299 51.5 299 21.4 269 21.4"/><polygon class="cls-11" points="238.9 81.5 238.9 111.6 238.9 141.7 269 141.7 269 111.6 299 111.6 299 81.5 269 81.5 238.9 81.5"/><polygon class="cls-11" points="329.1 51.5 299 51.5 299 81.5 329.1 81.5 329.1 111.6 359.2 111.6 359.2 141.7 389.2 141.7 389.2 111.6 389.2 81.5 359.2 81.5 359.2 51.5 329.1 51.5"/><rect class="cls-11" x="359.2" y="21.4" width="30.1" height="30.07"/><rect class="cls-12" x="299" y="261.9" width="30.1" height="30.07"/><polygon class="cls-12" points="359.2 201.8 359.2 231.9 329.1 231.9 329.1 261.9 359.2 261.9 389.2 261.9 389.2 231.9 389.2 201.8 359.2 201.8"/><polygon class="cls-13" points="238.9 81.5 269 81.5 269 51.5 238.9 51.5 208.8 51.5 208.8 81.5 208.8 111.6 238.9 111.6 238.9 81.5"/><polygon class="cls-13" points="359.2 111.6 329.1 111.6 329.1 81.5 299 81.5 299 111.6 269 111.6 269 141.7 238.9 141.7 238.9 171.7 238.9 201.8 238.9 231.9 238.9 261.9 269 261.9 299 261.9 329.1 261.9 329.1 231.9 359.2 231.9 359.2 201.8 389.2 201.8 389.2 171.7 389.2 141.7 359.2 141.7 359.2 111.6"/><polygon class="cls-13" points="389.2 51.5 359.2 51.5 359.2 81.5 389.2 81.5 389.2 111.6 419.3 111.6 419.3 81.5 419.3 51.5 389.2 51.5"/><polygon class="cls-7" points="419.3 51.5 419.3 81.5 419.3 111.6 449.4 111.6 449.4 81.5 449.4 51.5 419.3 51.5"/><polygon class="cls-14" points="208.8 622.8 178.8 622.8 178.8 652.8 208.8 652.8 238.9 652.8 269 652.8 269 622.8 238.9 622.8 208.8 622.8"/><polygon class="cls-14" points="449.4 622.8 419.3 622.8 389.2 622.8 359.2 622.8 329.1 622.8 329.1 652.8 359.2 652.8 389.2 652.8 419.3 652.8 449.4 652.8 479.4 652.8 479.4 622.8 449.4 622.8"/><polygon class="cls-10" points="449.4 652.8 419.3 652.8 389.2 652.8 359.2 652.8 329.1 652.8 299 652.8 269 652.8 238.9 652.8 208.8 652.8 178.8 652.8 178.8 682.9 178.8 713 178.8 743 178.8 773.1 178.8 803.2 178.8 833.2 178.8 863.3 178.8 893.4 178.8 923.4 178.8 953.5 178.8 983.6 178.8 1013.6 178.8 1043.7 178.8 1073.8 178.8 1103.8 178.8 1133.9 178.8 1164 208.8 1164 238.9 1164 269 1164 269 1133.9 269 1103.8 269 1073.8 269 1043.7 269 1013.6 269 983.6 269 953.5 269 923.4 269 893.4 269 863.3 269 833.2 269 803.2 269 773.1 269 743 299 743 329.1 743 329.1 773.1 359.2 773.1 359.2 803.2 359.2 833.2 359.2 863.3 359.2 893.4 359.2 923.4 359.2 953.5 359.2 983.6 359.2 1013.6 359.2 1043.7 359.2 1073.8 359.2 1103.8 359.2 1133.9 359.2 1164 389.2 1164 419.3 1164 449.4 1164 479.4 1164 479.4 1133.9 479.4 1103.8 479.4 1073.8 479.4 1043.7 479.4 1013.6 479.4 983.6 479.4 953.5 479.4 923.4 479.4 893.4 479.4 863.3 479.4 833.2 479.4 803.2 479.4 773.1 479.4 743 479.4 713 479.4 682.9 479.4 652.8 449.4 652.8"/><rect class="cls-8" x="449.4" y="1164" width="30.1" height="30.07"/><polygon class="cls-9" points="479.4 1164 479.4 1194.1 449.4 1194.1 449.4 1164 419.3 1164 389.2 1164 359.2 1164 359.2 1194.1 359.2 1224.1 389.2 1224.1 419.3 1224.1 449.4 1224.1 479.4 1224.1 509.5 1224.1 509.5 1194.1 509.5 1164 479.4 1164"/><polygon class="cls-10" points="539.6 141.7 539.6 111.6 509.5 111.6 509.5 81.5 479.4 81.5 449.4 81.5 449.4 111.6 419.3 111.6 419.3 141.7 449.4 141.7 449.4 171.7 479.4 171.7 509.5 171.7 509.5 201.8 509.5 231.9 479.4 231.9 479.4 261.9 449.4 261.9 419.3 261.9 389.2 261.9 359.2 261.9 359.2 292 359.2 322.1 359.2 352.1 359.2 382.2 359.2 412.3 359.2 442.4 359.2 472.4 359.2 502.5 359.2 532.6 359.2 562.6 359.2 592.7 359.2 622.8 389.2 622.8 419.3 622.8 449.4 622.8 479.4 622.8 479.4 592.7 479.4 562.6 479.4 532.6 479.4 502.5 479.4 472.4 479.4 442.4 449.4 442.4 449.4 412.3 449.4 382.2 449.4 352.1 479.4 352.1 479.4 322.1 509.5 322.1 509.5 292 539.6 292 539.6 261.9 569.6 261.9 569.6 231.9 569.6 201.8 569.6 171.7 569.6 141.7 539.6 141.7"/><polygon class="cls-6" points="569.6 171.7 569.6 201.8 569.6 231.9 569.6 261.9 539.6 261.9 539.6 292 509.5 292 509.5 322.1 479.4 322.1 479.4 352.1 449.4 352.1 449.4 382.2 449.4 412.3 449.4 442.4 479.4 442.4 479.4 412.3 479.4 382.2 509.5 382.2 509.5 352.1 539.6 352.1 539.6 322.1 569.6 322.1 569.6 292 599.7 292 599.7 261.9 599.7 231.9 599.7 201.8 599.7 171.7 569.6 171.7"/></svg>